<svg width="60" height="60" xmlns="http://www.w3.org/2000/svg"><g fill="none" fill-rule="evenodd"><circle stroke="#FFF" fill="#000" opacity=".6" cx="30" cy="30" r="29.5"/><path d="M30.024 16.4c-.447 0-.894.07-1.294.212.518.705.4 1.717-.305 2.281-.47.635-1.317.8-2.023.47v.518c-.07 1.976 1.505 3.646 3.48 3.717 1.976.07 3.645-1.506 3.716-3.482.07-1.975-1.505-3.645-3.48-3.716h-.094z" fill="#FFF" fill-rule="nonzero"/><path d="M35.085 28.841c4.748-2.84 6.315-9.064 3.555-13.868-2.783-4.804-8.957-6.39-13.705-3.597-4.747 2.793-6.36 9.064-3.554 13.868a10.406 10.406 0 003.554 3.597l-2.128 3.74c-.257.449-.07 1.04.374 1.3.14.072.304.119.445.119h12.792c.515 0 .96-.45.912-.97 0-.142-.046-.308-.116-.45l-2.129-3.739zm-5.075-2.887c-3.18 0-5.73-2.627-5.706-5.845 0-3.219 2.596-5.798 5.777-5.775 3.133 0 5.706 2.627 5.706 5.798-.047 3.195-2.596 5.822-5.777 5.822z" fill="#FFF" fill-rule="nonzero"/><text x="16" y="50" fill="#fff" font-size="14">全景</text></g></svg>