<?xml version="1.0" encoding="UTF-8"?>
<svg width="18px" height="18px" viewBox="0 0 18 18" version="1.1" xmlns="http://www.w3.org/2000/svg" xmlns:xlink="http://www.w3.org/1999/xlink">
    <title>ico_jiaotong</title>
    <g id="页面-1" stroke="none" stroke-width="1" fill="none" fill-rule="evenodd">
        <g id="1-分享主页" transform="translate(-271.000000, -2123.000000)">
            <g id="交通" transform="translate(271.000000, 2122.000000)">
                <g id="编组-19" transform="translate(0.000000, 1.000000)">
                    <rect id="矩形备份-11" x="0" y="0" width="18" height="18"></rect>
                    <g id="编组" transform="translate(3.000000, 2.500000)" fill="#FF5500" fill-rule="nonzero">
                        <path d="M0.0142533736,9.72388805 C0.0142533736,10.3714644 0.491524991,10.5512906 0.932499556,10.9472401 L0.932499556,12.2423495 C0.932499556,12.6373469 1.26246227,12.9616255 1.66708208,12.9616255 L2.40117409,12.9616255 C2.80528897,12.9616255 3.13577104,12.6373613 3.13577104,12.2423495 L3.13577104,11.5221214 L9.01188299,11.5221214 L9.01188299,12.2423495 C9.01188299,12.6373469 9.34239391,12.9616255 9.74647994,12.9616255 L10.4806152,12.9616255 C10.8847301,12.9616255 11.2151833,12.6373613 11.2151833,12.2423495 L11.2151833,10.9472545 C11.656129,10.551305 12.1334007,10.3351385 12.1334007,9.72390248 L12.1334007,2.85467085 C12.1334007,0.336238237 9.30556308,0.0100841175 6.07359619,0.0100841175 C2.84210538,0.0100841175 0.0142533736,0.336238237 0.0142533736,2.85467085 L0.0142533736,9.72388805 L0.0142533736,9.72388805 Z M2.76844371,10.2633523 C2.14433927,10.2633523 1.66706765,9.79564542 1.66706765,9.18352939 C1.66706765,8.57207697 2.14435369,8.10434126 2.76844371,8.10434126 C3.39300981,8.10434126 3.87028143,8.57207697 3.87028143,9.18351496 C3.87028143,9.79565985 3.39300981,10.2633523 2.76844371,10.2633523 Z M9.37915261,10.2633523 C8.75458651,10.2633523 8.2773149,9.79564542 8.2773149,9.18352939 C8.2773149,8.57207697 8.75458651,8.10434126 9.37915261,8.10434126 C10.0032715,8.10434126 10.480572,8.57207697 10.480572,9.18351496 C10.480572,9.79565985 10.0032715,10.2633523 9.37915261,10.2633523 Z M10.4806008,6.12583452 L1.66708208,6.12583452 L1.66708208,2.52850231 L10.4806008,2.52850231 L10.4806008,6.12583452 L10.4806008,6.12583452 Z" id="形状"></path>
                    </g>
                </g>
            </g>
        </g>
    </g>
</svg>