<?xml version="1.0" encoding="UTF-8"?>
<svg width="24px" height="24px" viewBox="0 0 24 24" version="1.1" xmlns="http://www.w3.org/2000/svg" xmlns:xlink="http://www.w3.org/1999/xlink">
    <title>ico_banben</title>
    <g id="页面-1" stroke="none" stroke-width="1" fill="none" fill-rule="evenodd">
        <g id="4-更多-弹窗" transform="translate(-151.000000, -686.000000)">
            <g id="编组-27" transform="translate(123.000000, 622.000000)">
                <g id="编组-26" transform="translate(20.000000, 64.000000)">
                    <g id="编组-15" transform="translate(8.000000, 0.000000)">
                        <rect id="矩形备份-12" x="0" y="0" width="24" height="24"></rect>
                        <g id="编组" transform="translate(2.000000, 2.000000)" fill="#808591" fill-rule="nonzero">
                            <path d="M0.00216798838,10.0732742 C-0.04064332,6.49188247 1.84547428,3.1640676 4.94011208,1.3608992 C8.03474989,-0.442269196 11.8599024,-0.442269196 14.9545402,1.3608992 C18.049178,3.1640676 19.9352956,6.49188247 19.8924843,10.0732742 C19.8273815,15.5194663 15.3939073,19.9002602 9.94732612,19.9002602 C4.50074494,19.9002602 0.0672707829,15.5194663 0.00216798838,10.0732742 Z M8.70462543,7.23119141 L11.1914479,7.23119141 L11.1914479,4.92199916 L8.70462543,4.92199916 L8.70462543,7.23261246 L8.70462543,7.23119141 Z M8.70462543,15.2245492 L11.1914479,15.2245492 L11.1914479,8.65365384 L8.70462543,8.65365384 L8.70462543,15.2245492 L8.70462543,15.2245492 Z" id="形状"></path>
                        </g>
                    </g>
                </g>
            </g>
        </g>
    </g>
</svg>