<svg width="24" height="24" xmlns="http://www.w3.org/2000/svg"><g fill="none" fill-rule="evenodd"><path d="M0 0h24v24H0z"/><path d="M20.44 4.011H3.535C2.688 4.011 2 4.7 2 5.547v13.061c0 .848.688 1.536 1.536 1.536h16.901c.848 0 1.536-.688 1.536-1.536V5.55a1.534 1.534 0 00-1.534-1.538zM4.69 8.332c0-.424.344-.768.768-.768h3.074c.424 0 .768.344.768.768v3.074a.768.768 0 01-.768.768H5.458a.768.768 0 01-.768-.768V8.332zm14.595 7.107c0 .53-.43.961-.96.961H5.648a.961.961 0 01-.961-.96v-.385c0-.53.43-.96.96-.96h12.678c.53 0 .961.43.961.96v.384h-.002zm0-5.378c0 .53-.43.961-.96.961H13.33a.961.961 0 01-.96-.96v-.385c0-.53.43-.96.96-.96h4.994c.53 0 .961.43.961.96v.384z" fill="#808591" fill-rule="nonzero"/></g></svg>