<?xml version="1.0" encoding="UTF-8"?>
<svg width="12px" height="12px" viewBox="0 0 12 12" version="1.1" xmlns="http://www.w3.org/2000/svg" xmlns:xlink="http://www.w3.org/1999/xlink">
    <title>ico_yuedu</title>
    <g id="页面-1" stroke="none" stroke-width="1" fill="none" fill-rule="evenodd">
        <g id="1-分享主页" transform="translate(-156.000000, -2510.000000)" fill="#808591" fill-rule="nonzero">
            <g id="编组-6备份-5" transform="translate(10.000000, 2194.000000)">
                <g id="编组-12备份-2" transform="translate(16.000000, 251.000000)">
                    <g id="-mockplus-" transform="translate(130.000000, 65.000000)">
                        <g id="编组" transform="translate(0.000000, 0.000000)">
                            <path d="M6,2.00267857 C2.7,2.00267857 0,4.70267857 0,6.03125 C0,7.44553571 2.7,10.0598214 6,10.0598214 C9.3,10.0598214 12,7.40267857 12,6.03125 C12,4.70267857 9.3,2.00267857 6,2.00267857 Z M6,7.95982143 C4.92857143,7.95982143 4.07142857,7.10267857 4.07142857,6.03125 C4.07142857,4.95982143 4.92857143,4.10267857 6,4.10267857 C7.07142857,4.10267857 7.92857143,4.95982143 7.92857143,6.03125 C7.92857143,7.10267857 7.07142857,7.95982143 6,7.95982143 Z" id="形状"></path>
                        </g>
                    </g>
                </g>
            </g>
        </g>
    </g>
</svg>