<svg width="18" height="18" xmlns="http://www.w3.org/2000/svg"><g fill="none" fill-rule="evenodd"><path d="M0 0h18v18H0z"/><path d="M13.625 5.34h-1.333A3.335 3.335 0 008.96 2.006c-1.839 0-3.31 1.494-3.31 3.332H4.319c-.736 0-1.31.598-1.31 1.333v7.975c0 .735.597 1.332 1.333 1.332h9.284c.736 0 1.333-.597 1.333-1.332V6.672c0-.735-.597-1.333-1.333-1.333zm-4.642-2c1.103 0 2 .896 2 1.976h-4c0-1.08.897-1.976 2-1.976zm0 6.664A3.335 3.335 0 015.65 6.672h1.333c0 1.103.896 2 1.976 2 1.103 0 1.976-.897 2-1.977h1.332a3.325 3.325 0 01-3.31 3.31z" fill="#FFA300" fill-rule="nonzero"/></g></svg>