<svg width="18" height="18" xmlns="http://www.w3.org/2000/svg"><g fill="none" fill-rule="evenodd"><path d="M0 0h18v18H0z"/><path d="M3.014 12.224c0 .647.478.827.918 1.223v1.295c0 .395.33.72.735.72h.734a.73.73 0 00.735-.72v-.72h5.876v.72c0 .395.33.72.734.72h.735a.73.73 0 00.734-.72v-1.295c.441-.396.918-.612.918-1.223v-6.87c0-2.518-2.827-2.844-6.06-2.844-3.23 0-6.059.326-6.059 2.845v6.869zm2.754.54c-.624 0-1.1-.468-1.1-1.08 0-.612.476-1.08 1.1-1.08.625 0 1.102.468 1.102 1.08 0 .612-.477 1.08-1.102 1.08zm6.611 0c-.624 0-1.102-.468-1.102-1.08 0-.612.478-1.08 1.102-1.08.624 0 1.102.468 1.102 1.08 0 .612-.478 1.08-1.102 1.08zm1.102-4.138H4.667V5.029h8.814v3.597z" fill="#F50" fill-rule="nonzero"/></g></svg>