<?xml version="1.0" encoding="UTF-8"?>
<svg width="18px" height="18px" viewBox="0 0 18 18" version="1.1" xmlns="http://www.w3.org/2000/svg" xmlns:xlink="http://www.w3.org/1999/xlink">
    <title>ico_jiaoyu</title>
    <g id="页面-1" stroke="none" stroke-width="1" fill="none" fill-rule="evenodd">
        <g id="1-分享主页" transform="translate(-54.000000, -2123.000000)">
            <g id="教育" transform="translate(54.000000, 2122.000000)">
                <g id="编组-16" transform="translate(0.000000, 1.000000)">
                    <rect id="矩形" x="0" y="0" width="18" height="18"></rect>
                    <path d="M16.8142114,7.12676351 L16.8142114,10.0309983 L17.4255935,10.6424834 L16.150728,11.9690998 L14.860296,10.6816368 L15.7439991,9.8781167 L15.7439991,7.58524335 C11.9942043,9.13129581 10.7921406,9.61183678 9.96062142,9.98699975 C9.12901979,10.3621627 8.53013218,10.3603277 7.70527259,10.0494513 C6.88045424,9.73867797 2.95408795,8.30575583 1.00450232,7.37263174 C-0.296506638,6.7500748 -0.380256472,6.35532484 1.02683148,5.82699164 C2.86312187,5.12938562 5.89832146,4.01210262 7.50719661,3.40239061 C8.4595778,3.01708364 8.96308708,2.80680187 9.83726465,3.24614832 C11.3981826,3.89072514 14.96487,5.22907307 16.738317,5.96131714 C18.2822046,6.63513012 17.2443004,6.85666927 16.8142114,7.12676351 L16.8142114,7.12676351 Z M10.1415021,11.1366734 C11.0482765,10.7624383 12.2709375,10.1437781 13.604131,9.57268341 L13.604131,14.1583065 C13.604131,14.1583065 11.8798782,15.9925557 8.84882277,15.9925557 C5.58459975,15.9925557 3.82139976,14.1583065 3.82139976,14.1583065 L3.82139976,9.87813734 C4.85037637,10.2972783 6.00586431,10.6579675 7.40418966,11.1366734 C8.26603772,11.4432407 9.35961016,11.5492579 10.1415021,11.1366734 L10.1415021,11.1366734 Z" id="形状" fill="#0072FF" fill-rule="nonzero"></path>
                </g>
            </g>
        </g>
    </g>
</svg>