<?xml version="1.0" encoding="UTF-8"?>
<svg width="16px" height="16px" viewBox="0 0 16 16" version="1.1" xmlns="http://www.w3.org/2000/svg" xmlns:xlink="http://www.w3.org/1999/xlink">
    <title>ico_dingwei</title>
    <g id="页面-1" stroke="none" stroke-width="1" fill="none" fill-rule="evenodd">
        <g id="1-分享主页" transform="translate(-26.000000, -1858.000000)">
            <g id="编组-6备份-3" transform="translate(10.000000, 1599.000000)">
                <g id="定位" transform="translate(16.000000, 259.000000)">
                    <rect id="矩形" x="0" y="0" width="16" height="16"></rect>
                    <path d="M13.9713203,6.36742424 C13.9713203,2.98106061 11.512987,0.524621212 8.12851732,0.524621212 C4.90692641,0.524621212 2.28571429,3.14583333 2.28571429,6.36742424 C2.28571429,8.74621212 5.51677489,12.7746212 7.25351732,14.9393939 L7.38230519,15.0984848 C7.56412338,15.3257576 7.83685065,15.4564394 8.13041126,15.4564394 C8.42207792,15.4564394 8.69480519,15.3257576 8.87851732,15.0984848 L9.00730519,14.9393939 C10.7402597,12.7746212 13.9713203,8.74621212 13.9713203,6.36742424 Z M8.09821429,8.06060606 C6.90692641,8.06060606 5.93912338,7.09280303 5.93912338,5.90151515 C5.93912338,4.71022727 6.90692641,3.74242424 8.09821429,3.74242424 C9.28950216,3.74242424 10.2573052,4.71022727 10.2573052,5.90151515 C10.2573052,7.09280303 9.28950216,8.06060606 8.09821429,8.06060606 Z" id="形状" fill="#0072FF"></path>
                </g>
            </g>
        </g>
    </g>
</svg>