<?xml version="1.0" encoding="UTF-8"?>
<svg width="24px" height="24px" viewBox="0 0 24 24" version="1.1" xmlns="http://www.w3.org/2000/svg" xmlns:xlink="http://www.w3.org/1999/xlink">
    <title>ico_litishapan</title>
    <g id="页面-1" stroke="none" stroke-width="1" fill="none" fill-rule="evenodd">
        <g id="4-更多-弹窗" transform="translate(-151.000000, -634.000000)">
            <g id="编组-27" transform="translate(123.000000, 622.000000)">
                <g id="编组-21" transform="translate(20.000000, 12.000000)">
                    <g id="编组-19" transform="translate(8.000000, 0.000000)">
                        <rect id="矩形" x="0" y="0" width="24" height="24"></rect>
                        <g id="编组" transform="translate(2.000000, 2.000000)" fill="#808591" fill-rule="nonzero">
                            <path d="M18.5069922,6.70722656 L11.6755469,10.3092578 C11.0545117,10.6818945 10.6818945,11.3029297 10.6818945,12.0481836 L10.6818945,18.8796289 C10.6818945,19.6248633 11.4271289,20.1216992 12.0481836,19.749082 L18.8796289,16.1470508 C19.5006641,15.7744141 19.8732812,15.1533789 19.8732812,14.408125 L19.8732812,7.70089844 C19.8732812,6.83144531 19.1280273,6.45880859 18.5069922,6.70722656 Z M8.19773438,10.3092578 L1.36628906,6.70722656 C0.745253906,6.45880859 0,6.83144531 0,7.57667969 L0,14.5323438 C0,15.2775781 0.372617188,15.8986328 0.993671875,16.27125 L7.82511719,19.8732813 C8.44615234,20.2458984 9.19138672,19.7490625 9.19138672,19.0038281 L9.19138672,11.9239648 C9.19138672,11.3029297 8.81876953,10.5576758 8.19773438,10.3092578 Z M17.8859375,5.09251953 C18.2585547,4.96832031 18.3827734,4.59570312 18.3827734,4.34728516 C18.3827734,4.09884766 18.2585547,3.85044922 17.8859375,3.60203125 L10.9302734,0.2484375 C10.6819141,0.124199219 10.3092773,0 9.93666016,0 C9.56404297,0 9.19140625,0.12421875 8.94298828,0.248417969 L1.98732422,3.72625 C1.61470703,3.85044922 1.49048828,4.09886719 1.49048828,4.47148437 C1.49048828,4.71992187 1.61470703,5.09251953 1.98732422,5.21673828 L8.94298828,8.69457031 C9.19138672,8.81876953 9.56402344,8.81876953 9.93664063,8.81876953 C10.3092578,8.81876953 10.6818945,8.69455078 10.9303125,8.57035156 L17.8859375,5.09251953 Z" id="形状"></path>
                        </g>
                    </g>
                </g>
            </g>
        </g>
    </g>
</svg>