<svg width="24" height="24" xmlns="http://www.w3.org/2000/svg"><g fill="none" fill-rule="evenodd"><path d="M0 0h24v24H0z"/><g fill="#0072FF" fill-rule="nonzero"><path d="M12.02 7.2c-.383 0-.766.06-1.108.181a1.428 1.428 0 01-.262 1.956c-.404.545-1.13.686-1.734.403v.444c-.06 1.694 1.29 3.125 2.983 3.185 1.693.061 3.124-1.29 3.185-2.983.06-1.694-1.29-3.126-2.983-3.186h-.08z"/><path d="M16.359 17.864c4.07-2.434 5.412-7.77 3.047-11.887C17.02 1.859 11.728.5 7.659 2.894c-4.07 2.393-5.452 7.769-3.047 11.886a8.92 8.92 0 003.047 3.084l-1.824 3.205c-.22.385-.06.892.32 1.115.12.061.261.102.381.102h10.965c.441 0 .822-.386.782-.832a.918.918 0 00-.1-.385l-1.824-3.205zm-4.35-2.475c-2.726 0-4.911-2.252-4.891-5.01 0-2.759 2.225-4.97 4.951-4.95 2.686 0 4.891 2.252 4.891 4.97-.04 2.738-2.225 4.99-4.951 4.99z"/></g></g></svg>