<?xml version="1.0" encoding="UTF-8"?>
<svg width="14px" height="14px" viewBox="0 0 14 14" version="1.1" xmlns="http://www.w3.org/2000/svg" xmlns:xlink="http://www.w3.org/1999/xlink">
    <title>ico_zhandi_mianji</title>
    <g id="页面-1" stroke="none" stroke-width="1" fill="none" fill-rule="evenodd">
        <g id="1-分享主页" transform="translate(-65.000000, -1808.000000)">
            <g id="编组-6备份-3" transform="translate(10.000000, 1599.000000)">
                <g id="编组-10" transform="translate(16.000000, 158.000000)">
                    <g id="编组" transform="translate(39.000000, 51.000000)">
                        <rect id="矩形" x="0" y="0" width="14" height="14"></rect>
                        <g transform="translate(1.000000, 1.000000)" fill="#0072FF" fill-rule="nonzero" id="形状">
                            <path d="M11.5845788,2.72588315 C11.8019701,2.72588315 11.9650136,2.50849185 11.9650136,2.29110055 L11.9650136,0.388926626 C11.9650136,0.171535318 11.8019701,0.00849185207 11.5845788,0.00849185207 L9.68240489,0.00849185207 C9.46501358,0.00849185207 9.24762228,0.17153533 9.24762228,0.388926626 L9.24762228,0.823709243 L2.72588315,0.823709243 L2.72588315,0.388926626 C2.72588315,0.171535318 2.50849185,0.00849185207 2.29110055,0.00849185207 L0.388926626,0.00849185207 C0.171535318,0.00849185207 0.00849185207,0.17153533 0.00849185207,0.388926626 L0.00849185207,2.29110055 C0.00849185207,2.50849185 0.17153533,2.72588315 0.388926626,2.72588315 L0.823709243,2.72588315 L0.823709243,9.24762228 L0.388926626,9.24762228 C0.171535318,9.24762228 0.00849185207,9.46501359 0.00849185207,9.68240489 L0.00849185207,11.5845788 C0.00849185207,11.8019701 0.17153533,11.9650136 0.388926626,11.9650136 L2.29110055,11.9650136 C2.50849185,11.9650136 2.67153533,11.8019701 2.67153532,11.5845788 L2.67153532,11.0954484 L9.24762228,11.0954484 L9.24762228,11.5845788 C9.24762228,11.8019701 9.41066576,11.9650136 9.62805707,11.9650136 L11.530231,11.9650136 C11.7476223,11.9650136 11.9106658,11.8019701 11.9106658,11.5845788 L11.9106658,9.68240489 C11.9106658,9.46501358 11.7476223,9.3019701 11.530231,9.30197011 L11.0411005,9.30197011 L11.0411005,2.72588315 L11.5845788,2.72588315 Z M10.0628397,0.823709243 L11.1497962,0.823709243 L11.1497962,1.91066576 L10.0628397,1.91066576 L10.0628397,0.823709243 Z M0.823709243,0.823709243 L1.91066576,0.823709243 L1.91066576,1.91066576 L0.823709243,1.91066576 L0.823709243,0.823709243 L0.823709243,0.823709243 Z M1.91066576,11.1497962 L0.823709243,11.1497962 L0.823709243,10.0628397 L1.91066576,10.0628397 L1.91066576,11.1497962 Z M7.39979619,7.94327446 C7.39979619,8.16066577 7.23675271,8.32370924 7.01936142,8.32370924 C6.80197011,8.32370924 6.63892663,8.16066577 6.63892663,7.94327446 L6.63892663,5.55197011 C6.63892663,5.38892663 6.63892663,5.11718751 6.47588315,4.95414402 C6.3671875,4.84544837 6.20414403,4.79110054 5.93240489,4.79110054 L5.66066576,4.79110054 L5.66066576,7.94327446 C5.66066576,8.16066577 5.49762228,8.32370924 5.28023097,8.32370924 C5.06283967,8.32370924 4.89979619,8.16066577 4.8997962,7.94327446 L4.8997962,4.73675272 L4.03023098,4.73675272 L4.03023098,7.88892663 C4.03023098,8.10631793 3.8671875,8.26936141 3.64979619,8.26936141 C3.43240488,8.26936141 3.26936142,8.10631793 3.26936142,7.88892663 L3.26936142,4.41066577 C3.26936142,4.19327446 3.4324049,4.03023098 3.64979619,4.03023098 L5.98675272,4.03023098 C6.42153532,4.03023098 6.74762228,4.13892663 7.01936142,4.41066577 C7.39979619,4.79110055 7.39979619,5.28023099 7.39979619,5.49762228 L7.39979619,7.94327446 L7.39979619,7.94327446 Z M8.97588316,4.24762229 C9.13892663,4.24762229 9.24762228,4.35631793 9.24762228,4.51936141 C9.24762228,4.68240489 9.13892663,4.79110054 8.97588316,4.79110054 L7.94327446,4.79110054 C7.88892663,4.79110054 7.78023098,4.73675271 7.72588315,4.68240489 C7.67153532,4.62805706 7.67153532,4.57370924 7.67153533,4.46501358 C7.67153533,4.41066575 7.72588316,3.75849184 8.16066577,3.54110054 C8.37805707,3.4324049 8.6497962,3.32370923 8.70414402,3.16066576 C8.70414402,3.10631793 8.70414402,3.05197011 8.6497962,2.94327446 C8.6497962,2.88892663 8.59544837,2.83457881 8.48675272,2.8345788 C8.32370924,2.78023097 8.2150136,2.88892663 8.10631793,3.05197011 C8.10631793,3.26936142 7.94327446,3.32370923 7.78023098,3.26936142 C7.6171875,3.21501359 7.56283967,3.05197011 7.67153533,2.88892663 C7.88892664,2.50849184 8.26936141,2.29110055 8.6497962,2.34544837 C8.86718751,2.3997962 9.03023099,2.50849184 9.19327445,2.72588315 C9.24762228,2.94327446 9.3019701,3.21501359 9.24762228,3.37805707 C9.13892663,3.81283967 8.70414402,3.97588315 8.43240489,4.08457881 C8.37805706,4.08457881 8.32370924,4.13892664 8.32370924,4.19327446 L8.97588316,4.19327446 L8.97588316,4.24762229 Z M11.1497962,11.1497962 L10.0628397,11.1497962 L10.0628397,10.0628397 L11.1497962,10.0628397 L11.1497962,11.1497962 Z"></path>
                        </g>
                    </g>
                </g>
            </g>
        </g>
    </g>
</svg>