<svg width="14" height="14" xmlns="http://www.w3.org/2000/svg"><path d="M11.723 8.838c-.912 0-1.657.488-2.004 1.245L5.312 8.21c.257-.398.398-.886.398-1.413a2.66 2.66 0 00-.077-.642l2.814-2.183c.373.283.848.45 1.375.45 1.272 0 2.222-.95 2.222-2.209 0-1.258-.95-2.208-2.222-2.208s-2.21.95-2.21 2.208c0 .321.064.617.167.873l-2.596 1.99c-.513-.77-1.361-1.31-2.325-1.31A2.845 2.845 0 00.006 6.618a2.845 2.845 0 002.852 2.85c.591 0 1.144-.154 1.593-.436l5.062 2.157c.065 1.194.99 2.08 2.21 2.08 1.272 0 2.21-.95 2.21-2.209 0-1.258-.951-2.221-2.21-2.221z" fill="#FFF" fill-rule="nonzero"/></svg>