<svg class="icon" viewBox="0 0 1024 1024" xmlns="http://www.w3.org/2000/svg" width="200" height="200"><defs><style/></defs><path d="M1024 148.5v660c0 58-39 108.8-95.1 123.7l-172.8 45.9c-10.2 2.7-20.1-5-20.1-15.5V162c0-7 4.6-13.2 11.3-15.3l193.9-59.4c41.2-12.6 82.8 18.2 82.8 61.2zm-352 27.9V963c0 10.5-9.9 18.1-20 15.5l-260-67.8a32 32 0 01-23.9-31V93.1c0-10.5 9.9-18.1 20-15.5l260 67.8a32 32 0 0123.9 31zm-368-83v795.8c0 7.6-5.4 14.2-12.9 15.7L76.5 947.7C36.9 955.6 0 925.3 0 885V252.2c0-57.9 38.9-108.7 94.9-123.6l189-50.6C294 75.2 304 82.9 304 93.4z" data-spm-anchor-id="a313x.7781069.0.i4" class="selected" fill="#8a8a8a"/></svg>