<svg width="24" height="24" xmlns="http://www.w3.org/2000/svg"><g fill="none" fill-rule="evenodd"><path d="M0 0h24v24H0z"/><path d="M6.406 4.708a1.28 1.28 0 011.28-1.28h6.825a1.278 1.278 0 011.28 1.28V9.4a1.28 1.28 0 01-1.28 1.28H7.685a1.278 1.278 0 01-1.28-1.28V4.708zM1.714 13.24c0-.707.57-1.28 1.28-1.28h11.517a1.278 1.278 0 011.28 1.28v5.545c0 .707-.57 1.28-1.28 1.28H2.993a1.278 1.278 0 01-1.28-1.28V13.24zM17.07 4.706a1.278 1.278 0 011.278-1.277h2.562c.706 0 1.278.572 1.278 1.277v14.08a1.278 1.278 0 01-1.278 1.278h-2.562a1.278 1.278 0 01-1.278-1.278V4.706z" fill="#808591" fill-rule="nonzero"/></g></svg>