<?xml version="1.0" encoding="UTF-8"?>
<svg width="24px" height="24px" viewBox="0 0 24 24" version="1.1" xmlns="http://www.w3.org/2000/svg" xmlns:xlink="http://www.w3.org/1999/xlink">
    <title>ico_dianzishu</title>
    <g id="页面-1" stroke="none" stroke-width="1" fill="none" fill-rule="evenodd">
        <g id="4-更多-弹窗" transform="translate(-175.000000, -762.000000)">
            <g id="编组-13" transform="translate(0.000000, 752.000000)">
                <g id="编组-10" transform="translate(150.000000, 0.000000)">
                    <g id="编组-3" transform="translate(25.000000, 10.000000)">
                        <rect id="矩形" x="0" y="0" width="24" height="24"></rect>
                        <g id="编组" transform="translate(3.428571, 1.714286)" fill="#808591" fill-rule="nonzero">
                            <path d="M0.0101668449,1.64686988 L0.0101668449,18.055589 C0.0101668449,18.962178 0.743544004,19.6965397 1.64914846,19.6965397 L15.2470643,19.6965397 C15.9903852,19.6965397 16.399622,19.2355494 16.399622,18.3888528 C16.399622,17.8228459 15.9149045,17.2351465 15.2470643,17.2351465 L3.23726263,17.2351465 C2.78651151,17.2351465 2.41773901,16.8657176 2.41773901,16.414704 C2.41773901,15.9636247 2.78651151,15.5940973 3.23726263,15.5940973 L14.7605419,15.5940973 C15.666212,15.5940973 16.3994579,14.8598997 16.3994579,13.9533108 L16.3994579,1.64686988 C16.3994251,0.740215262 15.666212,0.00591920038 14.7605419,0.00591920038 L9.02430316,0.00591920038 L9.02430316,7.79595529 C9.02430316,7.90244872 8.98321539,8.00927034 8.90543744,8.09138023 C8.74587779,8.25110398 8.48333617,8.25110398 8.32367806,8.09138023 C8.21702053,7.98039076 6.56606046,6.60614955 6.56606046,6.60614955 C6.56606046,6.60614955 4.9147722,7.98039078 4.80811468,8.09138023 C4.64855503,8.25110398 4.38601341,8.25110398 4.2263553,8.09138023 C4.14857735,8.00927034 4.10748958,7.90244872 4.10748958,7.79595529 L4.1074896,0.00591920038 L1.64921409,0.00591920038 C0.743544004,0.00591920038 0.0101668449,0.740215262 0.0101668449,1.64686988 L0.0101668449,1.64686988 Z" id="路径"></path>
                        </g>
                    </g>
                </g>
            </g>
        </g>
    </g>
</svg>