<svg width="24" height="24" xmlns="http://www.w3.org/2000/svg"><g fill="none" fill-rule="evenodd"><path d="M0 0h24v24H0z"/><g fill="#0072FF" fill-rule="nonzero"><path d="M23.049 19.053l-2.279-7.236a1.561 1.561 0 00-1.489-1.093h-1.766c-1.156 1.873-2.772 3.412-3.848 4.432l-.186.177a2.16 2.16 0 01-2.984-.003l-.216-.206c-1.135-1.077-2.71-2.578-3.834-4.4H4.558a1.56 1.56 0 00-1.494 1.11L.93 18.895c-.352 1.162.696 2.264 1.872 1.97l4.814-1.206a1.56 1.56 0 011.321.27l3.817 2.897c.381.289.874.387 1.337.266l7.864-2.057a1.561 1.561 0 001.095-1.982z"/><path d="M11.52 14.253a.679.679 0 00.94.002c1.693-1.61 4.978-4.603 4.978-7.942A5.452 5.452 0 0011.991.857a5.452 5.452 0 00-5.448 5.456c0 3.35 3.243 6.288 4.977 7.94zm.47-9.988a2.045 2.045 0 011.795 1.016 2.051 2.051 0 010 2.064 2.045 2.045 0 01-3.812-1.032c0-1.12.899-2.033 2.018-2.048z"/></g></g></svg>