<svg width="14" height="14" xmlns="http://www.w3.org/2000/svg"><g fill="none" fill-rule="evenodd"><path d="M0 0h14v14H0z"/><path d="M12.585 3.726c.217 0 .38-.218.38-.435V1.39a.371.371 0 00-.38-.38h-1.903c-.217 0-.434.163-.434.38v.435H3.726v-.435c0-.217-.218-.38-.435-.38H1.39a.371.371 0 00-.38.38V3.29c0 .217.163.435.38.435h.435v6.522h-.435c-.217 0-.38.217-.38.434v1.903c0 .217.163.38.38.38H3.29c.217 0 .38-.163.38-.38v-.49h6.577v.49c0 .217.163.38.38.38h1.902c.218 0 .38-.163.38-.38v-1.903a.371.371 0 00-.38-.38h-.489V3.726h.544zm-1.522-1.902h1.087V2.91h-1.087V1.824zm-9.24 0h1.088V2.91H1.824V1.824zM2.912 12.15H1.824v-1.087H2.91v1.087zM8.4 8.943c0 .218-.163.38-.38.38a.371.371 0 01-.381-.38V6.552c0-.163 0-.435-.163-.598-.109-.109-.272-.163-.544-.163h-.271v3.152c0 .218-.163.38-.38.38a.371.371 0 01-.381-.38V5.737h-.87v3.152c0 .217-.163.38-.38.38a.371.371 0 01-.38-.38V5.41c0-.218.162-.38.38-.38h2.337c.435 0 .76.108 1.032.38.38.38.38.87.38 1.087v2.445zm1.576-3.695c.163 0 .272.108.272.271 0 .163-.11.272-.272.272H8.943a.412.412 0 01-.217-.109c-.054-.054-.054-.108-.054-.217 0-.054.054-.707.489-.924.217-.109.489-.217.543-.38 0-.055 0-.109-.054-.218 0-.054-.055-.108-.163-.108-.163-.055-.272.054-.38.217 0 .217-.164.272-.327.217-.163-.054-.217-.217-.108-.38.217-.38.597-.598.978-.544.217.055.38.163.543.38.055.218.109.49.055.653-.11.435-.544.598-.816.707a.117.117 0 00-.108.108h.652v.055zm2.174 6.902h-1.087v-1.087h1.087v1.087z" fill="#0072FF" fill-rule="nonzero"/></g></svg>