<svg class="icon" viewBox="0 0 1025 1024" xmlns="http://www.w3.org/2000/svg" width="200.195" height="200"><defs><style/></defs><path d="M804.852 1023.999a73.05 73.05 0 01-51.865-21.185L439.605 688.702 272.322 856.715a73.05 73.05 0 01-73.05 18.263 73.05 73.05 0 01-51.865-55.518L1.31 88.966a73.05 73.05 0 0121.184-66.475A73.05 73.05 0 0188.968 1.307l730.494 146.099a73.05 73.05 0 0155.517 50.404 73.05 73.05 0 01-18.262 73.05L688.703 439.602l314.113 313.382a73.05 73.05 0 010 103.73l-146.099 146.1a73.05 73.05 0 01-51.865 21.184zM439.605 512.653a73.05 73.05 0 0151.865 21.184l313.382 314.112 43.1-43.099-314.113-313.382a73.05 73.05 0 010-103.73l124.914-122.723-491.622-97.155 97.886 490.892L387.74 533.837a73.05 73.05 0 0151.865-21.184z" fill="#FFF"/></svg>