<?xml version="1.0" encoding="UTF-8"?>
<svg width="18px" height="18px" viewBox="0 0 18 18" version="1.1" xmlns="http://www.w3.org/2000/svg" xmlns:xlink="http://www.w3.org/1999/xlink">
    <title>ico_shangye</title>
    <g id="页面-1" stroke="none" stroke-width="1" fill="none" fill-rule="evenodd">
        <g id="1-分享主页" transform="translate(-199.000000, -2123.000000)">
            <g id="商业" transform="translate(199.000000, 2122.000000)">
                <g id="编组-18" transform="translate(0.000000, 1.000000)">
                    <rect id="矩形备份-2" x="0" y="0" width="18" height="18"></rect>
                    <g id="编组" transform="translate(3.000000, 2.000000)" fill="#FFA300" fill-rule="nonzero">
                        <path d="M10.6250841,3.33923749 L9.29221028,3.33923749 C9.29221028,1.50068743 7.79845008,0.00692721311 5.95991797,0.00692721311 C4.12143972,0.00692721311 2.65060686,1.50068742 2.65060686,3.33923749 L1.31773302,3.33923749 C0.582316585,3.33923749 0.00778652946,3.93669489 0.00778652946,4.67211133 L0.00778652946,12.6465886 C0.00778652946,13.382005 0.605315752,13.9794624 1.34066036,13.9794624 L10.6250841,13.9794624 C11.3605006,13.9794624 11.9580477,13.382005 11.9580477,12.6465886 L11.9580477,4.67211133 C11.9580477,3.93669489 11.3605005,3.33923749 10.6250841,3.33923749 Z M5.98291712,1.33980105 C7.08596098,1.33980105 7.98226379,2.23610386 7.98226379,3.31622037 L3.98355251,3.31622037 C3.98355251,2.23610386 4.87978349,1.33980105 5.98291712,1.33980105 Z M5.98291712,8.00440364 C4.14436706,8.00440364 2.65060686,6.51057162 2.65060686,4.67211133 L3.98355251,4.67211133 C3.98355251,5.775227 4.87978349,6.67145799 5.95991797,6.67145798 C7.06303364,6.67145798 7.9363373,5.775227 7.95926462,4.69511048 L9.29221028,4.69511048 C9.29221028,6.51057161 7.79845008,8.00440364 5.98291712,8.00440364 Z" id="形状"></path>
                    </g>
                </g>
            </g>
        </g>
    </g>
</svg>