<?xml version="1.0" encoding="UTF-8"?>
<svg width="16px" height="16px" viewBox="0 0 16 16" version="1.1" xmlns="http://www.w3.org/2000/svg" xmlns:xlink="http://www.w3.org/1999/xlink">
    <title>ico_dianhua1</title>
    <g id="页面-1" stroke="none" stroke-width="1" fill="none" fill-rule="evenodd">
        <g id="4-更多-弹窗" transform="translate(-272.000000, -102.000000)" fill="#0072FF" fill-rule="nonzero">
            <g id="编组-2" transform="translate(0.000000, 88.000000)">
                <g id="编组-14" transform="translate(268.000000, 10.000000)">
                    <g id="编组" transform="translate(3.600000, 3.600000)">
                        <path d="M7.39204545,9.30397727 C6.11931818,8.03125 4.9375,6.57670455 5.48295455,6.03125 C6.30113636,5.21306818 7.02840909,4.71306818 5.57386364,2.89488636 C4.11931818,1.07670455 3.11931818,2.48579545 2.34659091,3.25852273 C1.4375,4.16761364 2.30113636,7.62215909 5.71022727,11.03125 C9.11931818,14.4403409 12.5284091,15.3039773 13.4829545,14.3948864 C14.3011364,13.5767045 15.6647727,12.6221591 13.8465909,11.1676136 C12.0284091,9.71306818 11.5284091,10.4403409 10.7102273,11.2585227 C10.1193182,11.7585227 8.66477273,10.5767045 7.39204545,9.30397727 Z" id="路径"></path>
                    </g>
                </g>
            </g>
        </g>
    </g>
</svg>