<svg width="24" height="24" xmlns="http://www.w3.org/2000/svg"><g fill="none" fill-rule="evenodd"><path d="M0 0h24v24H0z"/><path d="M18.171 8.037a.605.605 0 00-.946 0l-2.516 2.99-5.58-7.778A.598.598 0 008.644 3a.603.603 0 00-.49.282L2.09 14.74a.592.592 0 00-.015.604c.105.19.306.307.524.308h.086v.046h18.795l-.04-.046a.592.592 0 00.344-.938l-3.614-6.677zM6.163 19.092a.61.61 0 00-.592.617.61.61 0 00.592.617h11.413a.61.61 0 00.604-.617.61.61 0 00-.603-.617H6.164zm13.869-1.687a.626.626 0 00-.177-.437.595.595 0 00-.426-.18H4.43a.596.596 0 00-.61.266.63.63 0 000 .68.597.597 0 00.61.268h15a.609.609 0 00.601-.597z" fill="#0072FF" fill-rule="nonzero"/></g></svg>