<?xml version="1.0" encoding="UTF-8"?>
<svg width="24px" height="24px" viewBox="0 0 24 24" version="1.1" xmlns="http://www.w3.org/2000/svg" xmlns:xlink="http://www.w3.org/1999/xlink">
    <title>ico_zhoubian</title>
    <g id="页面-1" stroke="none" stroke-width="1" fill="none" fill-rule="evenodd">
        <g id="4-更多-弹窗" transform="translate(-101.000000, -762.000000)">
            <g id="编组-13" transform="translate(0.000000, 752.000000)">
                <g id="编组-11" transform="translate(75.000000, 0.000000)">
                    <g id="编组-4" transform="translate(26.000000, 10.000000)">
                        <rect id="矩形" x="0" y="0" width="24" height="24"></rect>
                        <g id="编组" transform="translate(0.857143, 0.857143)" fill="#808591" fill-rule="nonzero">
                            <path d="M22.1915223,18.1953943 L19.912808,10.9601143 C19.7084004,10.3099691 19.1058664,9.86756353 18.4243452,9.86722286 L16.6582023,9.86722286 C15.5017966,11.7403371 13.8863052,13.2784971 12.8103509,14.2987371 L12.6240423,14.4756857 C12.222544,14.8586434 11.6888683,15.0720817 11.1340195,15.0716057 C10.5774575,15.0719431 10.0422464,14.8574276 9.63998518,14.4727886 L9.42359089,14.2668686 C8.28902518,13.1898 6.71431661,11.68908 5.59022518,9.86722286 L3.70084232,9.86722286 C3.0127845,9.86753528 2.40608708,10.3183489 2.20725375,10.9770514 L0.07161375,18.03828 C-0.279831964,19.2000343 0.768042321,20.30184 1.94383661,20.0074457 L6.75799661,18.8022343 C7.2165023,18.6874704 7.70231556,18.7868954 8.07887089,19.07256 L11.895968,21.9683657 C12.2770254,22.2576303 12.7698424,22.3558158 13.2326652,22.23468 L21.0972938,20.1774857 C21.511093,20.0691919 21.862333,19.795853 22.0689509,19.4213314 C22.2760259,19.046732 22.3203334,18.6035762 22.1915223,18.1953943 L22.1915223,18.1953943 Z" id="路径"></path>
                            <path d="M10.6633452,13.3959429 C10.9253919,13.6475164 11.339019,13.648302 11.6020195,13.3977257 C13.2955109,11.7869143 16.5813166,8.79483429 16.5813166,5.45576571 C16.5813166,2.44251429 14.1421452,0 11.1335738,0 C8.12500232,0 5.68583089,2.44251429 5.68583089,5.45554286 C5.68583089,8.80597714 8.92929375,11.7434571 10.6633452,13.3959429 Z M11.1335738,3.40748571 C11.8712062,3.3976552 12.5569445,3.78591664 12.9280195,4.42349143 C13.2995095,5.06146079 13.2995095,5.84984778 12.9280195,6.48781714 C12.5569445,7.12539193 11.8712062,7.51365337 11.1335738,7.50382286 C10.0148309,7.48866857 9.11560232,6.57629143 9.11560232,5.45576571 C9.11560232,4.33524 10.0148309,3.42264 11.1335738,3.40748571 L11.1335738,3.40748571 Z" id="形状"></path>
                        </g>
                    </g>
                </g>
            </g>
        </g>
    </g>
</svg>