<?xml version="1.0" encoding="UTF-8"?>
<svg width="24px" height="24px" viewBox="0 0 24 24" version="1.1" xmlns="http://www.w3.org/2000/svg" xmlns:xlink="http://www.w3.org/1999/xlink">
    <title>ico_niaokan</title>
    <g id="页面-1" stroke="none" stroke-width="1" fill="none" fill-rule="evenodd">
        <g id="4-更多-弹窗" transform="translate(-26.000000, -762.000000)">
            <g id="编组-13" transform="translate(0.000000, 752.000000)">
                <g id="编组-12" transform="translate(18.000000, 10.000000)">
                    <g id="编组-5" transform="translate(8.000000, 0.000000)">
                        <rect id="矩形" x="0" y="0" width="24" height="24"></rect>
                        <g id="编组" transform="translate(3.428571, 1.714286)" fill="#808591" fill-rule="nonzero">
                            <path d="M8.59158387,5.48571429 C8.20863327,5.48571429 7.82568267,5.54619932 7.48304265,5.6671694 C7.92645914,6.27201977 7.82568267,7.13897196 7.22102382,7.62285226 C6.81791793,8.16721759 6.09232732,8.30834934 5.48766847,8.02608584 L5.48766847,8.46964277 C5.42720259,10.1632238 6.77760734,11.594703 8.4706521,11.6551881 C10.1636969,11.7156731 11.5947228,10.3648406 11.6551887,8.67125956 C11.7156546,6.97767853 10.3652498,5.54619932 8.67220505,5.48571429 L8.59158387,5.48571429 Z" id="路径"></path>
                            <path d="M12.9302723,16.1494206 C16.9995658,13.7152878 18.3426332,8.38048002 15.977231,4.26273866 C13.5917831,0.144997297 8.29969687,-1.2140602 4.23040332,1.17950375 C0.161109772,3.57306769 -1.22204912,8.94844434 1.1834446,13.0661857 C1.94518428,14.3441054 2.96751912,15.3786119 4.23040332,16.1494206 L2.40623725,19.3543622 C2.18573366,19.7397665 2.3460999,20.2468775 2.72696974,20.4700064 C2.84724443,20.5308597 2.9875649,20.5714286 3.10783958,20.5714286 L14.0728818,20.5714286 C14.513889,20.5714286 14.8947588,20.1860242 14.8546673,19.7397665 C14.8546673,19.6180599 14.8145757,19.4760688 14.7544384,19.3543622 L12.9302723,16.1494206 L12.9302723,16.1494206 Z M8.5803378,13.6747189 C5.85411158,13.6747189 3.66912145,11.423146 3.68916723,8.66446218 C3.68916723,5.90577831 5.91424893,3.69477433 8.64047514,3.71505877 C11.3266098,3.71505877 13.5316457,5.96663163 13.5316457,8.68474662 C13.4915542,11.423146 11.306564,13.6747189 8.5803378,13.6747189 Z" id="形状"></path>
                        </g>
                    </g>
                </g>
            </g>
        </g>
    </g>
</svg>