<?xml version="1.0" encoding="UTF-8"?>
<svg width="24px" height="24px" viewBox="0 0 24 24" version="1.1" xmlns="http://www.w3.org/2000/svg" xmlns:xlink="http://www.w3.org/1999/xlink">
    <title>ico_huxingjianshang</title>
    <g id="页面-1" stroke="none" stroke-width="1" fill="none" fill-rule="evenodd">
        <g id="4-更多-弹窗" transform="translate(-250.000000, -762.000000)">
            <g id="编组-13" transform="translate(0.000000, 752.000000)">
                <g id="编组-9" transform="translate(225.000000, 0.000000)">
                    <g id="编组-6" transform="translate(25.000000, 10.000000)">
                        <rect id="矩形" x="0" y="0" width="24" height="24"></rect>
                        <g id="编组" transform="translate(1.714286, 3.428571)" fill="#808591" fill-rule="nonzero">
                            <path d="M4.69197407,1.27962979 C4.69197407,0.940176951 4.82685214,0.614633451 5.06692154,0.37464405 C5.30699093,0.134654649 5.63257937,-0.000113149205 5.97203218,-1.78575883e-06 L12.7962978,-1.78575883e-06 C13.1358503,-0.000567336014 13.4616589,0.134068222 13.7017591,0.374168451 C13.9418593,0.614268681 14.0764949,0.940077261 14.0759293,1.27962979 L14.0759293,5.97160563 C14.0759293,6.31105846 13.9410513,6.63660196 13.7009819,6.87659136 C13.4609125,7.11658077 13.1353241,7.25134856 12.7958712,7.2512372 L5.97160563,7.2512372 C5.6320531,7.25180275 5.30624453,7.11716719 5.0661443,6.87706696 C4.82604407,6.63696673 4.69140852,6.31115815 4.69197407,5.97160563 L4.69197407,1.27962979 Z M-1.14212682e-06,9.81049497 C-1.14212682e-06,9.10371278 0.569435256,8.53086404 1.28005632,8.53086404 L12.7962978,8.53086404 C13.1358156,8.53041159 13.461558,8.66508367 13.7016335,8.90515921 C13.9417091,9.14523474 14.0763812,9.4709772 14.0759287,9.81049497 L14.0759287,15.3555573 C14.0759287,16.0623395 13.5064923,16.6351883 12.7958712,16.6351883 L1.27962979,16.6351883 C0.940112015,16.6356407 0.614369558,16.5009686 0.374294024,16.2608931 C0.13421849,16.0208176 -0.000453595515,15.6950751 -1.14212682e-06,15.3555573 L-1.14212682e-06,9.81049497 Z M15.3555573,1.27792361 C15.3555573,0.938923278 15.4902539,0.613813752 15.7300033,0.374144322 C15.9697527,0.134474892 16.2949072,-7.12863662e-08 16.6339075,-7.12863662e-08 L19.1957263,-7.12863662e-08 C19.9015731,-7.12863662e-08 20.4738409,0.572076896 20.4740765,1.27792361 L20.4740765,15.3572635 C20.4740765,15.6962638 20.3393799,16.0213734 20.0996305,16.2610428 C19.8598811,16.5007122 19.5347266,16.6351872 19.1957263,16.6351872 L16.6339075,16.6351872 C15.9280607,16.6351872 15.3557929,16.0631102 15.3555573,15.3572635 L15.3555573,1.27792361 L15.3555573,1.27792361 Z" id="形状"></path>
                        </g>
                    </g>
                </g>
            </g>
        </g>
    </g>
</svg>