<svg width="24" height="24" xmlns="http://www.w3.org/2000/svg"><g fill="none" fill-rule="evenodd"><path d="M0 0h24v24H0z"/><path d="M18.404 3H5.596A2.597 2.597 0 003 5.596v12.806A2.597 2.597 0 005.596 21h12.806a2.596 2.596 0 002.596-2.596V5.596A2.594 2.594 0 0018.404 3zM8.54 5.768a2.077 2.077 0 110 4.155 2.077 2.077 0 010-4.155zm10.265 13.155h-13.5a.45.45 0 01-.355-.726l3.927-5.048a.45.45 0 01.71 0l1.59 2.045 2.849-4.026a.45.45 0 01.747.02l4.412 7.048a.448.448 0 01-.38.687z" fill="#0072FF" fill-rule="nonzero"/></g></svg>