<svg width="24" height="24" xmlns="http://www.w3.org/2000/svg"><g fill="none" fill-rule="evenodd"><path d="M0 0h24v24H0z"/><path d="M20.507 8.707l-6.831 3.602a1.982 1.982 0 00-.994 1.74v6.83c0 .746.745 1.243 1.366.87l6.832-3.602c.62-.373.993-.994.993-1.739V9.701c0-.87-.745-1.242-1.366-.994zm-10.31 3.602l-6.83-3.602C2.744 8.46 2 8.831 2 9.577v6.955c0 .746.373 1.367.994 1.74l6.831 3.601c.621.373 1.366-.124 1.366-.87v-7.079c0-.621-.372-1.366-.993-1.615zm9.689-5.216c.373-.125.497-.497.497-.746 0-.248-.124-.497-.497-.745L12.93 2.248A2.34 2.34 0 0011.937 2a2.34 2.34 0 00-.994.248L3.987 5.726c-.372.124-.497.373-.497.745 0 .249.125.622.497.746l6.956 3.478c.248.124.621.124.994.124.372 0 .745-.124.993-.249l6.956-3.477z" fill="#0072FF" fill-rule="nonzero"/></g></svg>