<?xml version="1.0" encoding="UTF-8"?>
<svg width="24px" height="24px" viewBox="0 0 24 24" version="1.1" xmlns="http://www.w3.org/2000/svg" xmlns:xlink="http://www.w3.org/1999/xlink">
    <title>ico_meitu</title>
    <g id="页面-1" stroke="none" stroke-width="1" fill="none" fill-rule="evenodd">
        <g id="4-更多-弹窗" transform="translate(-313.000000, -634.000000)">
            <g id="编组-27" transform="translate(123.000000, 622.000000)">
                <g id="编组-23" transform="translate(182.000000, 12.000000)">
                    <g id="编组-17" transform="translate(8.000000, 0.000000)">
                        <rect id="矩形备份-10" x="0" y="0" width="24" height="24"></rect>
                        <g id="编组" transform="translate(3.000000, 3.000000)" fill="#808591" fill-rule="nonzero">
                            <path d="M15.4042741,0 L2.59550366,0 C1.16315528,0 0,1.16315528 0,2.59550366 L0,15.4022651 C0,16.8366224 1.16315528,17.9997777 2.59550366,17.9997777 L15.4022651,17.9997777 C16.8366224,17.9997777 17.9977714,16.8366224 17.9977714,15.4042741 L17.9977714,2.59550366 C17.9997777,1.16315528 16.8366224,0 15.4042741,0 Z M5.53854767,2.76826939 C6.68563172,2.76826939 7.61575416,3.69839183 7.61575416,4.84547588 C7.61575416,5.99255992 6.68563172,6.92268237 5.53854767,6.92268237 C4.39146363,6.92268237 3.46134118,5.99255992 3.46134118,4.84547588 C3.46134118,3.69839183 4.39146363,2.76826939 5.53854767,2.76826939 L5.53854767,2.76826939 Z M15.8040459,15.9225712 L2.30421262,15.9225712 C1.93055652,15.9225712 1.71962162,15.4926658 1.94863665,15.197357 L5.87604351,10.1489818 C6.05684484,9.91795788 6.4063941,9.91795788 6.58518653,10.1489818 L8.17623831,12.1940458 L11.0248638,8.1682027 C11.209683,7.90704521 11.6034281,7.91708973 11.772176,8.18829174 L16.1837287,15.2355261 C16.3725657,15.5348528 16.1556041,15.9225712 15.8040459,15.9225712 L15.8040459,15.9225712 Z" id="形状"></path>
                        </g>
                    </g>
                </g>
            </g>
        </g>
    </g>
</svg>