<svg width="16" height="16" xmlns="http://www.w3.org/2000/svg"><g fill="none" fill-rule="evenodd"><path d="M0 0h16v16H0z"/><path d="M7.65 14.409l-1.573.768a.752.752 0 01-.995-.324l-.82-1.546a.753.753 0 00-.536-.388l-1.723-.303a.752.752 0 01-.615-.846l.246-1.733a.752.752 0 00-.205-.627L.215 8.152a.752.752 0 010-1.046l1.216-1.26a.752.752 0 00.204-.627l-.246-1.734a.752.752 0 01.615-.846l1.724-.303a.753.753 0 00.535-.388l.82-1.546a.752.752 0 01.995-.323l1.573.768a.751.751 0 00.66 0L9.884.08a.752.752 0 01.996.325l.82 1.545a.75.75 0 00.535.389l1.723.302c.4.07.672.444.616.846l-.247 1.733a.752.752 0 00.206.628l1.216 1.259a.752.752 0 010 1.046L14.532 9.41a.752.752 0 00-.204.628l.246 1.733a.752.752 0 01-.616.846l-1.723.303a.753.753 0 00-.535.388l-.82 1.546a.752.752 0 01-.996.324l-1.573-.77a.752.752 0 00-.66 0z" fill="#F5CF41" fill-rule="nonzero"/><path d="M7.98 13.27a5.641 5.641 0 110-11.283 5.641 5.641 0 010 11.282zm0-.753a4.889 4.889 0 100-9.777 4.889 4.889 0 000 9.777z" fill="#F5CF41" fill-rule="nonzero"/><path d="M10.691 10.033c.157 0 .284.137.284.308v.352c0 .169-.127.307-.284.307H5.308c-.156 0-.283-.138-.283-.307v-.352c0-.171.126-.308.283-.308h5.383zM8.001 4c.054 0 .106.028.14.075l1.502 2.073a.174.174 0 00.14.074.174.174 0 00.14-.074l1.258-1.73a.17.17 0 01.209-.06.196.196 0 01.109.203l-.522 4.856H5.025l-.523-4.855a.196.196 0 01.108-.204.17.17 0 01.21.061l1.254 1.73a.174.174 0 00.141.075.174.174 0 00.14-.075L7.86 4.075A.174.174 0 018 4z" fill="#FFF8CE" fill-rule="nonzero"/></g></svg>