<?xml version="1.0" encoding="UTF-8"?>
<svg width="24px" height="24px" viewBox="0 0 24 24" version="1.1" xmlns="http://www.w3.org/2000/svg" xmlns:xlink="http://www.w3.org/1999/xlink">
    <title>ico_gengduo</title>
    <g id="页面-1" stroke="none" stroke-width="1" fill="none" fill-rule="evenodd">
        <g id="4-更多-弹窗" transform="translate(-325.000000, -762.000000)">
            <g id="编组-13" transform="translate(0.000000, 752.000000)">
                <g id="编组-8" transform="translate(300.000000, 0.000000)">
                    <g id="编组-7" transform="translate(25.000000, 10.000000)">
                        <rect id="矩形" x="0" y="0" width="24" height="24"></rect>
                        <g id="编组" transform="translate(2.571429, 2.571429)" fill="#0072FF" fill-rule="nonzero">
                            <path d="M3.95701407,0.0418358372 C1.69382519,0.238513998 0.00816124727,2.23378969 0.00816124727,4.50566577 L0.00816124727,4.58663046 C0.00816124727,6.8626764 1.84393998,8.69949759 4.10817132,8.69949759 L7.98752657,8.69949759 C8.17184563,8.69949759 8.34861546,8.62627713 8.47894871,8.49594387 C8.60928197,8.36561061 8.68250242,8.18884078 8.68250242,8.00452172 L8.68250242,4.36215325 C8.68250242,1.83869591 6.52738228,-0.181598908 3.95701407,0.0418358372 L3.95701407,0.0418358372 Z M14.4351651,0.0251564165 C12.0399308,0.0251564165 10.0978207,1.96691896 10.0978207,4.36215325 L10.0978207,8.00452172 C10.0978207,8.18884078 10.1710412,8.36561062 10.3013745,8.49594388 C10.4317077,8.62627714 10.6084776,8.69949759 10.7927966,8.69949759 L14.4351651,8.69949759 C16.8307469,8.69949759 18.7725094,6.75738755 18.7725094,4.36215325 C18.7725094,1.96691896 16.8307469,0.0251564165 14.4351651,0.0251564165 L14.4351651,0.0251564165 Z M0.00816084983,14.4764844 C0.00920371113,16.8703288 1.94957631,18.8107013 4.34342064,18.8117442 C6.76054667,18.8127863 8.68250242,16.762955 8.68250242,14.3458289 L8.68250242,11.1944609 C8.68250242,10.4473619 8.37219571,10.1374026 7.98856903,10.1374026 L4.47407611,10.1374026 C2.05695008,10.1374026 0.0071187837,12.0593584 0.00816084983,14.4764844 Z M14.2916526,10.1374026 L10.7931441,10.1374026 C10.608825,10.1374026 10.4320552,10.2106231 10.301722,10.3409563 C10.1713887,10.4712896 10.0981682,10.6480594 10.0981682,10.8323785 L10.0981682,14.474747 C10.0981682,16.8699813 12.0399308,18.8117438 14.4351651,18.8117438 C16.8575034,18.8117438 18.8159454,16.8258503 18.771467,14.3934348 C18.728031,12.0058452 16.6795896,10.1374026 14.2916526,10.1374026 L14.2916526,10.1374026 Z" id="形状"></path>
                        </g>
                    </g>
                </g>
            </g>
        </g>
    </g>
</svg>