<svg width="20" height="20" xmlns="http://www.w3.org/2000/svg"><g fill="none" fill-rule="evenodd"><path d="M17.496 16.514l.531 1.763-1.937-1.062c-.706.178-1.418.356-2.12.356-3.36 0-6.008-2.297-6.008-5.127 0-2.824 2.647-5.128 6.008-5.128 3.174 0 6 2.302 6 5.128 0 1.594-1.055 3.005-2.474 4.07M7.076 14.04c-.88 0-1.592-.181-2.474-.354l-2.47 1.238.707-2.125C1.071 11.562.013 9.97.013 8.032c0-3.364 3.181-6.009 7.064-6.009 3.474 0 6.517 2.113 7.128 4.961a5.858 5.858 0 00-.68-.041c-3.357 0-6.006 2.505-6.006 5.59 0 .515.08 1.007.218 1.48-.22.016-.44.025-.66.027" fill="#00BA42"/><path d="M15.97 10.096c.2 0 .401.082.542.225a.77.77 0 01-.544 1.31.773.773 0 01-.542-.225.77.77 0 01.544-1.31zm-3.85 0a.77.77 0 01.543 1.312.776.776 0 01-1.087 0 .771.771 0 01.545-1.311v-.001zM9.698 4.809c.255 0 .512.104.695.285a.994.994 0 01.286.694.999.999 0 01-.286.696 1.001 1.001 0 01-.695.287 1.004 1.004 0 01-.694-.286.994.994 0 01-.287-.694.99.99 0 01.287-.695.992.992 0 01.694-.287zm-5.006 0a.983.983 0 01.98.98.994.994 0 01-.286.694.995.995 0 01-.694.288 1.004 1.004 0 01-.695-.286.994.994 0 01-.286-.694c0-.26.106-.513.286-.695a.99.99 0 01.695-.287z" fill="#FFF" fill-rule="nonzero"/></g></svg>