<?xml version="1.0" encoding="UTF-8"?>
<svg width="14px" height="14px" viewBox="0 0 14 14" version="1.1" xmlns="http://www.w3.org/2000/svg" xmlns:xlink="http://www.w3.org/1999/xlink">
    <title>ico_zhutui_huxing</title>
    <g id="页面-1" stroke="none" stroke-width="1" fill="none" fill-rule="evenodd">
        <g id="1-分享主页" transform="translate(-232.000000, -1712.000000)">
            <g id="编组-6备份-3" transform="translate(10.000000, 1599.000000)">
                <g id="编组-8" transform="translate(182.000000, 62.000000)">
                    <g id="编组-6" transform="translate(40.000000, 51.000000)">
                        <rect id="矩形" x="0" y="0" width="14" height="14"></rect>
                        <g id="编组" transform="translate(1.000000, 2.000000)" fill="#0072FF" fill-rule="nonzero">
                            <path d="M2.73698488,0.746450708 C2.73698488,0.548436555 2.81566375,0.35853618 2.95570423,0.218542362 C3.09574471,0.0785485454 3.2856713,-6.60037032e-05 3.48368544,-1.04169265e-06 L7.46450705,-1.04169265e-06 C7.66257935,-0.000330946008 7.85263436,0.0782064628 7.99269282,0.21826493 C8.13275129,0.358323397 8.21128869,0.548378402 8.21095879,0.746450708 L8.21095879,3.48343662 C8.21095879,3.68145077 8.13227991,3.87135115 7.99223943,4.01134496 C7.85219895,4.15133878 7.66227237,4.22995333 7.46425822,4.22988837 L3.48343662,4.22988837 C3.28536431,4.23021827 3.09530931,4.15168086 2.95525084,4.0116224 C2.81519238,3.87156393 2.73665497,3.68150892 2.73698488,3.48343662 L2.73698488,0.746450708 Z M-6.66240643e-07,5.72278873 C-6.66240643e-07,5.31049912 0.332170566,4.97633736 0.746699521,4.97633736 L7.46450705,4.97633736 C7.66255908,4.97607343 7.85257551,5.05463214 7.99261957,5.1946762 C8.13266363,5.33472027 8.21122234,5.5247367 8.21095841,5.72278873 L8.21095841,8.95740845 C8.21095841,9.36969806 7.87878718,9.70385982 7.46425822,9.70385982 L0.746450708,9.70385982 C0.548398675,9.70412375 0.358382242,9.62556504 0.218338181,9.48552098 C0.0782941191,9.34547692 -0.000264597384,9.15546049 -6.66240643e-07,8.95740845 L-6.66240643e-07,5.72278873 Z M8.95740845,0.745455437 C8.95740845,0.547705246 9.03598143,0.358058022 9.17583526,0.218250854 C9.31568909,0.0784436867 9.50536252,-4.15837136e-08 9.7031127,-4.15837136e-08 L11.197507,-4.15837136e-08 C11.609251,-4.15837136e-08 11.9430739,0.333711523 11.9432113,0.745455437 L11.9432113,8.95840371 C11.9432113,9.15615391 11.8646383,9.34580113 11.7247845,9.4856083 C11.5849306,9.62541547 11.3952572,9.70385919 11.197507,9.70385919 L9.7031127,9.70385919 C9.29136877,9.70385919 8.95754584,9.37014763 8.95740845,8.95840371 L8.95740845,0.745455437 L8.95740845,0.745455437 Z" id="形状"></path>
                        </g>
                    </g>
                </g>
            </g>
        </g>
    </g>
</svg>