<svg width="18" height="18" xmlns="http://www.w3.org/2000/svg"><g fill="none" fill-rule="evenodd"><path d="M0 0h18v18H0z"/><path d="M16.814 7.127v2.904l.612.611-1.275 1.327-1.29-1.287.883-.804V7.585c-3.75 1.546-4.952 2.027-5.783 2.402-.832.375-1.43.373-2.256.062-.825-.31-4.75-1.743-6.7-2.676-1.302-.623-1.385-1.018.022-1.546 1.836-.698 4.871-1.815 6.48-2.425.953-.385 1.456-.595 2.33-.156 1.561.645 5.128 1.983 6.901 2.715 1.544.674.506.896.076 1.166zm-6.672 4.01c.906-.375 2.129-.993 3.462-1.564v4.585s-1.724 1.835-4.755 1.835c-3.264 0-5.028-1.835-5.028-1.835v-4.28c1.03.42 2.185.78 3.583 1.259.862.306 1.956.412 2.738 0z" fill="#0072FF" fill-rule="nonzero"/></g></svg>