<svg width="14" height="14" xmlns="http://www.w3.org/2000/svg"><g fill="none" fill-rule="evenodd"><path d="M0 0h14v14H0z"/><path d="M3.737 2.746A.746.746 0 014.484 2h3.98a.745.745 0 01.747.746v2.737a.746.746 0 01-.747.747h-3.98a.745.745 0 01-.747-.747V2.746zM1 7.723c0-.413.332-.747.747-.747h6.718a.745.745 0 01.746.747v3.234a.745.745 0 01-.747.747H1.746A.745.745 0 011 10.957V7.723zm8.957-4.978A.745.745 0 0110.703 2h1.495c.411 0 .745.334.745.745v8.213a.745.745 0 01-.745.746h-1.495a.746.746 0 01-.746-.746V2.745z" fill="#0072FF" fill-rule="nonzero"/></g></svg>