<?xml version="1.0" encoding="UTF-8"?>
<svg width="24px" height="24px" viewBox="0 0 24 24" version="1.1" xmlns="http://www.w3.org/2000/svg" xmlns:xlink="http://www.w3.org/1999/xlink">
    <title>ico_jingguan</title>
    <g id="页面-1" stroke="none" stroke-width="1" fill="none" fill-rule="evenodd">
        <g id="4-更多-弹窗" transform="translate(-232.000000, -634.000000)">
            <g id="编组-27" transform="translate(123.000000, 622.000000)">
                <g id="编组-22" transform="translate(101.000000, 12.000000)">
                    <g id="编组-18" transform="translate(8.000000, 0.000000)">
                        <rect id="矩形备份-9" x="0" y="0" width="24" height="24"></rect>
                        <g id="编组" transform="translate(2.000000, 3.000000)" fill="#808591" fill-rule="nonzero">
                            <path d="M16.1711122,5.03655301 C16.0564056,4.89229573 15.8821658,4.80823383 15.6978623,4.80823383 C15.5135589,4.80823383 15.3393191,4.89229573 15.2246125,5.03655301 L12.7085753,8.02733293 L7.12810842,0.248816958 C7.01624972,0.0932028916 6.83655049,0.00066981604 6.64490588,0 C6.44481183,0.00686637722 6.26116705,0.112578653 6.15473645,0.282158439 L0.0905693753,11.7391844 C-0.0245144166,11.9226765 -0.0302396951,12.1543595 0.0756403623,12.343312 C0.181138751,12.5324129 0.382182863,12.6498545 0.600146515,12.6508498 L0.68623719,12.6508498 L0.68623719,12.6966321 L19.4813731,12.6966321 L19.4415624,12.6508498 C19.6391231,12.6045698 19.7998588,12.4627442 19.8695276,12.2736433 C19.9386498,12.0845569 19.9069713,11.8733047 19.7854274,11.7128098 L16.1711122,5.03605538 L16.1711122,5.03655301 Z M4.16320546,16.0919884 C3.83476707,16.09796 3.57102108,16.372654 3.57102108,16.7090545 C3.57102108,17.045455 3.83476707,17.3201489 4.16320546,17.3261206 L15.575942,17.3261206 C15.9093568,17.3261206 16.179572,17.0504314 16.1800696,16.7090545 C16.1800696,16.3686729 15.910352,16.0919884 15.5769373,16.0919884 L4.16370309,16.0919884 L4.16320546,16.0919884 Z M18.0317655,14.4050094 C18.0317655,14.2407902 17.9680683,14.0840355 17.8551054,13.9680868 C17.7432889,13.8528854 17.5896743,13.7877428 17.4291308,13.7874457 L2.43044412,13.7874457 C2.19141969,13.7434852 1.94963796,13.8490186 1.81934964,14.0541775 C1.68606887,14.2615281 1.68606887,14.52759 1.81934964,14.7349407 C1.95271553,14.9414588 2.19307272,15.0459619 2.43094175,15.0016725 L17.4291308,15.0016725 C17.7540857,15.0016725 18.0213152,14.7379265 18.0312678,14.4045117 L18.0317655,14.4050094 Z" id="形状"></path>
                        </g>
                    </g>
                </g>
            </g>
        </g>
    </g>
</svg>