<?xml version="1.0" encoding="UTF-8"?>
<svg width="24px" height="24px" viewBox="0 0 24 24" version="1.1" xmlns="http://www.w3.org/2000/svg" xmlns:xlink="http://www.w3.org/1999/xlink">
    <title>ico_jibenxinxi</title>
    <g id="页面-1" stroke="none" stroke-width="1" fill="none" fill-rule="evenodd">
        <g id="4-更多-弹窗" transform="translate(-313.000000, -686.000000)">
            <g id="编组-27" transform="translate(123.000000, 622.000000)">
                <g id="编组-24" transform="translate(182.000000, 64.000000)">
                    <g id="编组-16" transform="translate(8.000000, 0.000000)">
                        <rect id="矩形备份-11" x="0" y="0" width="24" height="24"></rect>
                        <g id="编组" transform="translate(2.000000, 4.000000)" fill="#808591" fill-rule="nonzero">
                            <path d="M18.4392756,0.0110973011 L1.53586648,0.0110973011 C0.68803267,0.0110973011 0,0.699129972 0,1.54696378 L0,14.6084872 C0,15.456321 0.68803267,16.1443537 1.53586648,16.1443537 L18.4370561,16.1443537 C19.2848899,16.1443537 19.9729279,15.456321 19.9729279,14.6084872 L19.9729279,1.54918324 C19.975142,0.699129972 19.2871094,0.0110973011 18.4392756,0.0110973011 Z M2.6899858,4.33238636 C2.6899858,3.90846946 3.03400213,3.56445312 3.45791903,3.56445312 L6.53187145,3.56445312 C6.95578835,3.56445312 7.29980469,3.90846946 7.29980469,4.33238636 L7.29980469,7.40633878 C7.29980469,7.83025568 6.95578835,8.17427202 6.53187145,8.17427202 L3.45791903,8.17427202 C3.03400213,8.17427202 2.6899858,7.83025568 2.6899858,7.40633878 L2.6899858,4.33238636 Z M17.2851562,11.439098 C17.2851562,11.969549 16.854581,12.4001243 16.32413,12.4001243 L3.64879261,12.4001243 C3.11834162,12.4001243 2.68776634,11.969549 2.68776634,11.439098 L2.68776634,11.0551314 C2.68776634,10.5246804 3.11834162,10.0941051 3.64879261,10.0941051 L16.3263494,10.0941051 C16.8568004,10.0941051 17.2873757,10.5246804 17.2873757,11.0551314 L17.2873757,11.439098 L17.2851562,11.439098 Z M17.2851563,6.06134588 C17.2851563,6.59179687 16.854581,7.02237216 16.32413,7.02237216 L11.3303445,7.02237216 C10.7998935,7.02237216 10.3693182,6.59179688 10.3693182,6.06134588 L10.3693182,5.67737926 C10.3693182,5.14692827 10.7998935,4.71635298 11.3303445,4.71635298 L16.32413,4.71635298 C16.854581,4.71635298 17.2851563,5.14692827 17.2851563,5.67737926 L17.2851563,6.06134588 Z" id="形状"></path>
                        </g>
                    </g>
                </g>
            </g>
        </g>
    </g>
</svg>