<svg width="24" height="24" xmlns="http://www.w3.org/2000/svg"><g fill="none" fill-rule="evenodd"><path d="M0 0h24v24H0z"/><path d="M20.782 2h-7.044c-.507 0-1.173.664-1.173 1.174v7.043c0 .511.666 1.173 1.173 1.173h7.044c.507 0 1.173-.663 1.173-1.173V3.174c0-.51-.666-1.174-1.173-1.174zm-1.58 5.265h-3.715c-.391 0-.712-.282-.712-.623 0-.343.32-.622.712-.622h3.716c.391 0 .71.279.71.622 0 .341-.319.623-.71.623zM10.3 2H2.922A.928.928 0 002 2.928v7.427c0 .511.668 1.035 1.174 1.035h7.043c.508 0 1.174-.662 1.174-1.173V3.174c0-.51-.584-1.174-1.092-1.174zM8.468 7.265h-1.24v1.247c0 .394-.278.717-.618.717-.34 0-.619-.323-.619-.717V7.265H4.753c-.392 0-.713-.282-.713-.623 0-.343.32-.622.713-.622h1.24V4.771c0-.394.279-.717.618-.717.34 0 .619.323.619.717V6.02h1.24c.39 0 .711.279.711.622 0 .341-.321.623-.713.623zm1.831 5.408l-.082-.108H3.174C2.668 12.565 2 13.09 2 13.6v7.427c0 .51.415.928.922.928h7.377c.508 0 1.092-.663 1.092-1.174V13.74c0-.51-.584-1.066-1.092-1.066zm-3.688 2.03c.394 0 .713.323.713.717a.717.717 0 01-.713.72.717.717 0 01-.713-.72c0-.396.318-.716.713-.716zm0 5.222a.717.717 0 01-.713-.72c0-.396.319-.719.713-.719.394 0 .713.323.713.719 0 .397-.319.72-.713.72zm1.857-1.99H4.753c-.392 0-.713-.28-.713-.623 0-.34.32-.621.713-.621h3.715c.392 0 .712.28.712.62 0 .345-.32.624-.712.624zm12.566-5.262l-.252-.108h-7.044c-.507 0-1.173.664-1.173 1.174v7.042c0 .51.585 1.174 1.093 1.174h7.124c.507 0 1.173-.663 1.173-1.174V13.74c0-.51-.414-1.066-.921-1.066zm-1.831 6.461h-3.716c-.391 0-.712-.28-.712-.621 0-.343.32-.623.712-.623h3.716c.391 0 .71.28.71.623 0 .342-.319.621-.71.621zm0-2.395h-3.716c-.391 0-.712-.28-.712-.623 0-.343.32-.624.712-.624h3.716c.391 0 .71.281.71.624 0 .343-.319.623-.71.623z" fill="#0072FF" fill-rule="nonzero"/></g></svg>