<svg width="24" height="24" xmlns="http://www.w3.org/2000/svg"><g fill="none" fill-rule="evenodd"><path d="M0 0h24v24H0z"/><path d="M3.439 3.361V19.77a1.64 1.64 0 001.639 1.64h13.598c.743 0 1.152-.46 1.152-1.307 0-.566-.485-1.154-1.152-1.154H6.666c-.45 0-.82-.369-.82-.82 0-.451.37-.82.82-.82h11.523a1.64 1.64 0 001.639-1.641V3.36a1.64 1.64 0 00-1.639-1.64h-5.736v7.79a.431.431 0 01-.119.295.413.413 0 01-.582 0c-.106-.111-1.757-1.486-1.757-1.486S8.343 9.695 8.237 9.806a.413.413 0 01-.582 0 .431.431 0 01-.119-.296V1.72H5.078a1.64 1.64 0 00-1.64 1.641z" fill="#808591" fill-rule="nonzero"/></g></svg>