<?xml version="1.0" encoding="UTF-8"?>
<svg width="24px" height="24px" viewBox="0 0 24 24" version="1.1" xmlns="http://www.w3.org/2000/svg" xmlns:xlink="http://www.w3.org/1999/xlink">
    <title>ico_jisuanqi</title>
    <g id="页面-1" stroke="none" stroke-width="1" fill="none" fill-rule="evenodd">
        <g id="4-更多-弹窗" transform="translate(-232.000000, -686.000000)">
            <g id="编组-27" transform="translate(123.000000, 622.000000)">
                <g id="编组-25" transform="translate(96.000000, 64.000000)">
                    <g id="编组-20" transform="translate(13.000000, 0.000000)">
                        <rect id="矩形备份-13" x="0" y="0" width="24" height="24"></rect>
                        <g id="编组" transform="translate(2.000000, 2.000000)" fill="#808591" fill-rule="nonzero">
                            <path d="M18.7815179,0.0003125 L11.7384152,0.0003125 C11.2308929,0.0003125 10.5645759,0.663616071 10.5645759,1.17397321 L10.5645759,8.21676339 C10.5645759,8.72837054 11.2308929,9.39042411 11.7384152,9.39042411 L18.7815179,9.39042411 C19.2891741,9.38959821 19.9553571,8.72712054 19.9553571,8.21676339 L19.9553571,1.17397321 C19.9553571,0.663616071 19.2891741,0.0003125 18.7815179,0.0003125 Z M17.2028125,5.26475446 L13.4873437,5.26475446 C13.0957589,5.26475446 12.7752232,4.98339286 12.7752232,4.64176339 C12.7752232,4.29888393 13.0957589,4.02002232 13.4873437,4.02002232 L17.2028125,4.02002232 C17.5943973,4.02002232 17.9137277,4.29888393 17.9137277,4.64176339 C17.9137277,4.98339286 17.5943973,5.26475446 17.2028125,5.26475446 L17.2028125,5.26475446 Z M8.29901786,0.0003125 L0.921674107,0.0003125 C0.415357143,0.0003125 0,0.417991071 0,0.927946429 L0,8.35475446 C0,8.86636161 0.667522321,9.39042411 1.17383929,9.39042411 L8.21694196,9.39042411 C8.72459821,9.39042411 9.39078125,8.72837054 9.39078125,8.21676339 L9.39078125,1.17397321 C9.39078125,0.663616071 8.80654018,0.0003125 8.29901786,0.0003125 Z M6.46801339,5.26475446 L5.22837054,5.26475446 L5.22837054,6.5115625 C5.22837054,6.90595982 4.95015625,7.22888393 4.60975446,7.22888393 C4.27055804,7.22888393 3.99113839,6.90595982 3.99113839,6.5115625 L3.99113839,5.26475446 L2.75267857,5.26475446 C2.36095982,5.26475446 2.04042411,4.98339286 2.04042411,4.64176339 C2.04042411,4.29888393 2.35973214,4.02002232 2.75267857,4.02002232 L3.99232143,4.02002232 L3.99232143,2.77113839 C3.99232143,2.37714286 4.27174107,2.05421875 4.6109375,2.05421875 C4.95147321,2.05421875 5.22955357,2.37714286 5.22955357,2.77113839 L5.22955357,4.02002232 L6.46933036,4.02002232 C6.86091518,4.02002232 7.18145089,4.29888393 7.18145089,4.64176339 C7.18026786,4.98339286 6.85973214,5.26475446 6.46801339,5.26475446 L6.46801339,5.26475446 Z M8.29901786,10.672567 L8.21694196,10.564933 L1.17383929,10.564933 C0.667522321,10.564933 0,11.0914955 0,11.6002009 L0,19.027433 C0,19.5377902 0.415357143,19.955067 0.921674107,19.955067 L8.29901786,19.955067 C8.80654018,19.955067 9.39075893,19.2917634 9.39075893,18.7814062 L9.39075893,11.7385937 C9.39075893,11.2290625 8.80654018,10.672567 8.29901786,10.672567 Z M4.61095982,12.7036161 C5.00511161,12.7036161 5.32441964,13.0257143 5.32441964,13.4197098 C5.32441964,13.8166071 5.00631696,14.1407812 4.61095982,14.1407812 C4.21560268,14.1407812 3.89763393,13.8166071 3.89763393,13.4197098 C3.89763393,13.0244643 4.21560268,12.7036161 4.61095982,12.7036161 Z M4.61095982,17.9252455 C4.21680804,17.9252455 3.89763393,17.6018973 3.89763393,17.205 C3.89763393,16.8085045 4.21680804,16.4864286 4.61095982,16.4864286 C5.00511161,16.4864286 5.32441964,16.8085268 5.32441964,17.205 C5.32441964,17.6018973 5.00508929,17.9252455 4.61095982,17.9252455 Z M6.46801339,15.9353348 L2.75267857,15.9353348 C2.36095982,15.9353348 2.04042411,15.6547991 2.04042411,15.311942 C2.04042411,14.9711384 2.35973214,14.690625 2.75267857,14.690625 L6.46801339,14.690625 C6.85973214,14.690625 7.18026786,14.9711607 7.18026786,15.311942 C7.18026786,15.6564732 6.85973214,15.9353348 6.46801339,15.9353348 L6.46801339,15.9353348 Z M19.033683,10.672567 L18.7815402,10.564933 L11.7384152,10.564933 C11.2308929,10.564933 10.5645759,11.2290625 10.5645759,11.7385937 L10.5645759,18.7813839 C10.5645759,19.2917411 11.1500223,19.9550446 11.6576786,19.9550446 L18.7815179,19.9550446 C19.2891741,19.9550446 19.9553571,19.2917411 19.9553571,18.7813839 L19.9553571,11.7385937 C19.9553571,11.2290625 19.5413393,10.672567 19.033683,10.672567 L19.033683,10.672567 Z M17.2028125,17.1343527 L13.4873437,17.1343527 C13.0957589,17.1343527 12.7752232,16.8534152 12.7752232,16.5126116 C12.7752232,16.1697321 13.0957589,15.8896205 13.4873437,15.8896205 L17.2028125,15.8896205 C17.5943973,15.8896205 17.9137277,16.1697321 17.9137277,16.5126116 C17.9137277,16.8546429 17.5943973,17.1343527 17.2028125,17.1343527 L17.2028125,17.1343527 Z M17.2028125,14.7392411 L13.4873437,14.7392411 C13.0957589,14.7392411 12.7752232,14.4587054 12.7752232,14.1158259 C12.7752232,13.7733705 13.0957589,13.4920089 13.4873437,13.4920089 L17.2028125,13.4920089 C17.5943973,13.4920089 17.9137277,13.7733705 17.9137277,14.1158259 C17.9137277,14.4587054 17.5943973,14.7392411 17.2028125,14.7392411 L17.2028125,14.7392411 Z" id="形状"></path>
                        </g>
                    </g>
                </g>
            </g>
        </g>
    </g>
</svg>